<?xml version="1.0" encoding="UTF-8"?>
<svg id="Layer_2" data-name="Layer 2" xmlns="http://www.w3.org/2000/svg" viewBox="0 0 32 30.25">
  <g id="Layer_1-2" data-name="Layer 1">
    <g>
      <path d="M0,19.16c0-2.67,0-5.33,0-8,.02-.24,.05-.47,.06-.71,.08-1.57,.07-3.14,.38-4.69,.32-1.56,.77-3.04,2.03-4.14,.59-.52,1.25-.9,2-1.06,.72-.15,1.46-.22,2.19-.26C9.15,.18,11.64,.04,14.12,0c2.32-.03,4.64,.07,6.95,.12,.03,0,.06,0,.09,0,1.76,.1,3.53,.19,5.29,.29,.81,.05,1.58,.22,2.3,.63,.65,.37,1.18,.86,1.61,1.45,.63,.86,.92,1.86,1.14,2.89,.36,1.67,.36,3.37,.44,5.06,.01,.24,.04,.47,.06,.71v8c-.02,.23-.05,.45-.06,.68-.11,1.45-.15,2.91-.33,4.35-.18,1.43-.57,2.82-1.54,3.97-.71,.85-1.59,1.45-2.67,1.6-1.3,.19-2.62,.25-3.94,.33-.89,.06-1.79,.08-2.68,.1-2.05,.03-4.1,.09-6.15,.05-2.55-.05-5.09-.17-7.63-.28-1.23-.05-2.45-.13-3.6-.67-.55-.26-1.02-.62-1.41-1.06-.83-.93-1.22-2.07-1.48-3.26-.36-1.69-.37-3.41-.44-5.12C.05,19.61,.02,19.39,0,19.16ZM15.34,2.33c-1.66,.07-3.96,.16-6.25,.25-.6,.02-1.21,.04-1.81,.08-.82,.07-1.65,.13-2.46,.26-.92,.14-1.55,.73-1.96,1.54-.46,.91-.67,1.91-.73,2.91-.12,1.83-.23,3.66-.23,5.49,0,3.08,.1,6.16,.16,9.24,.02,1,.18,1.98,.45,2.95,.29,1.08,.92,1.87,1.99,2.21,.59,.19,1.22,.29,1.83,.32,2.41,.13,4.82,.28,7.23,.31,2.33,.03,4.66-.03,6.98-.1,2.04-.07,4.07-.21,6.1-.32,1.22-.06,2.1-.66,2.58-1.76,.39-.88,.59-1.82,.65-2.77,.1-1.79,.22-3.58,.22-5.37,0-3.01-.09-6.02-.15-9.03-.02-1.1-.15-2.17-.44-3.23-.46-1.71-1.5-2.35-2.84-2.52-1.44-.18-2.9-.25-4.35-.3-2.11-.08-4.23-.1-6.98-.17Z"/>
      <path d="M11.94,14.72c0-1.57,0-3.14,0-4.72,0-.62,.18-1.15,.74-1.51,.35-.23,.7-.22,1.03-.06,.35,.17,.66,.41,.98,.63,.37,.25,.73,.52,1.09,.78,.73,.51,1.46,1.01,2.19,1.51,.52,.36,1.06,.7,1.58,1.06,.55,.38,1.13,.74,1.62,1.2,.69,.65,.56,2.03-.2,2.57-.62,.43-1.25,.84-1.87,1.27-.84,.57-1.68,1.16-2.52,1.73-.7,.47-1.42,.93-2.13,1.4-.17,.11-.35,.21-.51,.34-.67,.55-1.52,.16-1.81-.56-.12-.3-.17-.64-.18-.97-.02-1.55,0-3.1,0-4.65Zm1.89,3.59c1.76-1.18,3.48-2.34,5.26-3.53-1.77-1.21-3.5-2.4-5.26-3.6v7.13Z"/>
    </g>
  </g>
</svg>