<?xml version="1.0" encoding="UTF-8"?>
<svg id="Layer_2" data-name="Layer 2" xmlns="http://www.w3.org/2000/svg" viewBox="0 0 29.59 29.58">
  <g id="Layer_1-2" data-name="Layer 1">
    <g>
      <path d="M15.78,29.58h-1.97c-.08-.02-.17-.04-.25-.05-.52-.07-1.05-.11-1.57-.21-3.64-.72-6.6-2.55-8.89-5.47-1.51-1.92-2.47-4.08-2.88-6.49C.14,16.83,.08,16.3,0,15.77c0-.66,0-1.31,0-1.97,.04-.36,.08-.72,.14-1.08,.42-2.86,1.53-5.42,3.45-7.58C7.13,1.15,11.58-.51,16.86,.13c2.86,.35,5.41,1.5,7.56,3.42,4.22,3.76,5.87,8.47,4.9,14.03-.64,3.68-2.57,6.66-5.52,8.95-1.9,1.48-4.05,2.42-6.43,2.82-.53,.09-1.06,.15-1.59,.23ZM14.79,1.72C7.57,1.74,1.72,7.61,1.74,14.8c.02,7.21,5.89,13.07,13.08,13.05,7.21-.02,13.07-5.89,13.05-13.08-.02-7.21-5.89-13.07-13.08-13.05Z"/>
      <path d="M14.96,21.77c-3.26,0-5.99-2.7-5.99-5.94,0-.47,.28-.82,.72-.92,.38-.08,.81,.15,.95,.53,.05,.13,.06,.28,.07,.42,.07,1.38,.64,2.5,1.75,3.33,2.56,1.88,6.24,.34,6.68-2.81,.03-.2,.04-.4,.05-.6,.03-.52,.43-.91,.91-.89,.49,.02,.83,.41,.83,.93-.02,3.27-2.71,5.94-5.98,5.94Z"/>
      <path d="M20.11,7.8c1.92,0,3.55,1.6,3.54,3.49,0,.51-.34,.88-.81,.91-.5,.02-.88-.3-.92-.82-.06-.82-.42-1.44-1.22-1.72-1.09-.37-2.3,.34-2.37,1.7-.02,.47-.34,.8-.76,.84-.45,.04-.84-.21-.94-.63-.04-.19-.04-.4-.02-.6,.18-1.78,1.72-3.15,3.5-3.16Z"/>
      <path d="M9.76,7.77c1.9,.03,3.51,1.6,3.53,3.48,0,.55-.36,.94-.87,.95-.44,0-.8-.3-.86-.74-.06-.44-.12-.87-.42-1.24-.49-.59-1.23-.81-1.95-.58-.69,.22-1.17,.85-1.22,1.6-.04,.59-.34,.93-.84,.95-.52,.02-.9-.36-.91-.9,0-1.56,1.1-2.99,2.62-3.37,.3-.07,.6-.1,.91-.15Z"/>
    </g>
  </g>
</svg>