<?xml version="1.0" encoding="UTF-8"?>
<svg id="Layer_2" data-name="Layer 2" xmlns="http://www.w3.org/2000/svg" viewBox="0 0 30.95 29.69">
  <g id="Layer_1-2" data-name="Layer 1">
    <path d="M0,11.54c.11-.29,.19-.59,.34-.86,.54-.97,1.41-1.35,2.48-1.35,2.28,0,4.55,0,6.83,0,.77,0,.93-.12,1.17-.86,.71-2.18,1.43-4.35,2.11-6.53C13.54,0,15.59-.45,16.92,.43c.55,.37,.88,.89,1.08,1.52,.71,2.19,1.42,4.37,2.13,6.56,.23,.7,.4,.83,1.13,.83,2.29,0,4.57,0,6.86,0,.7,0,1.35,.15,1.9,.62,1.21,1.02,1.25,2.92,.03,3.93-.89,.73-1.85,1.38-2.79,2.07-1.06,.77-2.12,1.54-3.18,2.31-.5,.36-.59,.63-.4,1.22,.72,2.21,1.42,4.42,2.16,6.61,.56,1.68-.35,2.99-1.54,3.43-.77,.28-1.54,.24-2.22-.23-1.24-.86-2.45-1.76-3.68-2.64-.77-.55-1.53-1.11-2.3-1.67-.52-.38-.76-.38-1.28,0-1.89,1.37-3.78,2.75-5.67,4.11-1.26,.91-2.76,.74-3.69-.41-.63-.78-.69-1.66-.39-2.59,.72-2.18,1.42-4.37,2.14-6.56,.22-.67,.14-.9-.42-1.31-1.86-1.35-3.71-2.7-5.57-4.04C.6,13.73,.2,13.13,0,12.39,0,12.11,0,11.83,0,11.54Zm6.3-.37c-1.2,0-2.4,0-3.59,0-.16,0-.33,.02-.46,.09-.57,.3-.56,.98,.01,1.4,1.91,1.39,3.83,2.78,5.74,4.17,1.06,.78,1.41,1.85,1.01,3.11-.41,1.28-.83,2.56-1.24,3.84-.32,.98-.64,1.97-.96,2.95-.17,.54,.06,.98,.56,1.1,.31,.07,.54-.08,.77-.25,1.86-1.35,3.71-2.7,5.57-4.05,1.22-.89,2.29-.89,3.52,0,1.86,1.35,3.71,2.7,5.57,4.05,.23,.17,.47,.32,.77,.25,.52-.12,.74-.57,.56-1.13-.72-2.22-1.44-4.43-2.16-6.65-.45-1.39-.12-2.43,1.07-3.3,1.07-.78,2.13-1.55,3.2-2.32,.82-.6,1.64-1.2,2.47-1.79,.3-.22,.48-.49,.38-.88-.1-.4-.38-.6-.85-.6-2.35,0-4.69,0-7.04,0-1.42,0-2.33-.66-2.77-2.01-.72-2.21-1.44-4.43-2.17-6.64-.06-.18-.14-.37-.27-.49-.43-.41-1.11-.19-1.31,.45-.71,2.24-1.44,4.47-2.17,6.7-.43,1.31-1.35,1.98-2.73,1.98-1.16,0-2.32,0-3.47,0Z"/>
  </g>
</svg>