<?xml version="1.0" encoding="UTF-8"?>
<svg id="Layer_2" data-name="Layer 2" xmlns="http://www.w3.org/2000/svg" viewBox="0 0 22.25 31.66">
  <g id="Layer_1-2" data-name="Layer 1">
    <g>
      <path d="M11.13,31.66c-.8-.91-1.56-1.76-2.29-2.63-1.95-2.34-3.73-4.8-5.28-7.43-1.22-2.07-2.28-4.23-2.95-6.55C.26,13.81,.02,12.55,0,11.26c-.03-2.03,.45-3.93,1.45-5.69C2.67,3.46,4.4,1.89,6.62,.9,7.87,.34,9.17,0,10.55,0c1.2,0,2.39,.01,3.57,.35,1.91,.56,3.56,1.53,4.95,2.94,1.51,1.54,2.49,3.38,2.94,5.49,.28,1.29,.3,2.59,.12,3.89-.36,2.6-1.32,4.99-2.54,7.28-2.23,4.19-5.06,7.95-8.27,11.44-.06,.07-.11,.15-.19,.27Zm-.08-2.8s.08,0,.12,.01c.02-.05,.04-.1,.07-.14,2.39-2.82,4.6-5.77,6.39-9.02,1.19-2.16,2.18-4.39,2.6-6.84,.41-2.39,.05-4.61-1.22-6.69-1.98-3.24-5.87-4.96-9.6-4.24-2.12,.41-3.9,1.43-5.31,3.06-1.71,1.99-2.45,4.32-2.22,6.93,.17,1.9,.77,3.69,1.55,5.42,1.26,2.78,2.88,5.35,4.72,7.78,.95,1.25,1.93,2.48,2.9,3.72Z"/>
      <path d="M18.6,11.09c-.01,4.11-3.32,7.48-7.51,7.47-4.14,0-7.46-3.39-7.46-7.49,0-4.16,3.4-7.52,7.56-7.48,4.1,.04,7.44,3.43,7.41,7.51Zm-13.12-.01c.01,3.12,2.56,5.67,5.66,5.65,3.12-.02,5.65-2.58,5.62-5.68-.03-3.14-2.54-5.63-5.67-5.62-3.1,.01-5.62,2.55-5.61,5.65Z"/>
    </g>
  </g>
</svg>