<?xml version="1.0" encoding="UTF-8"?>
<svg id="Layer_2" data-name="Layer 2" xmlns="http://www.w3.org/2000/svg" viewBox="0 0 26.88 29.93">
  <g id="Layer_1-2" data-name="Layer 1">
    <path d="M15.54,0c.38,.14,.78,.24,1.14,.42,1.11,.57,1.66,1.55,1.77,2.75,.2,2.22-.19,4.36-.95,6.44-.07,.18-.13,.36-.21,.57,.62,.08,1.21,.16,1.81,.23,1.5,.19,2.99,.38,4.49,.56,.29,.04,.58,.06,.87,.11,1.64,.33,2.61,1.99,2.4,3.54-.1,.78-.41,1.45-.97,2.04,.65,.69,.88,1.5,.77,2.44-.1,.94-.53,1.65-1.36,2.12,.66,1,.77,2.04,.29,3.12-.48,1.08-1.37,1.63-2.42,1.81,0,.53,.06,1.03-.01,1.51-.19,1.19-1.05,1.79-2.11,2.14-.28,.09-.59,.13-.89,.13-2.01,0-4.01,0-6.02-.07-2.06-.07-4.11-.32-6.08-.99-.66-.22-1.29-.54-1.95-.77-.42-.14-.86-.23-1.3-.26-.74-.04-1.48,0-2.22-.03-1.04-.04-1.93-.39-2.33-1.44-.17-.44-.23-.95-.23-1.43C0,21.83,0,18.71,0,15.58c0-.53,.07-1.06,.31-1.56,.45-.95,1.23-1.4,2.24-1.5,.63-.06,1.26-.06,1.89-.12,.24-.02,.48-.14,.72-.23,.26-.1,.44-.29,.58-.54,.81-1.53,1.93-2.76,3.43-3.66,.54-.33,1.14-.68,1.5-1.18,.8-1.11,1.43-2.34,1.74-3.69,.07-.31,.01-.64,.05-.96C12.59,1.12,13.1,.38,14.08,0,14.56,0,15.05,0,15.54,0ZM1.78,20.27c0,1.52,0,3.04,0,4.56,0,.2,0,.41,.02,.61,.05,.39,.17,.55,.57,.57,.83,.04,1.65,.05,2.48,.06,.61,0,1.2,.09,1.77,.32,.66,.26,1.3,.57,1.97,.8,1.9,.65,3.88,.84,5.86,.92,1.86,.07,3.72,.05,5.58,.07,.41,0,.78-.12,1.11-.38,.45-.36,.41-1.08-.08-1.4-.1-.06-.2-.12-.3-.19-.36-.25-.53-.72-.41-1.13,.13-.44,.52-.75,.97-.75,.19,0,.39,.03,.58,.03,.35,.01,.7,.06,1.05,.02,.64-.07,1.08-.59,1.12-1.26,.04-.65-.32-1.14-.96-1.32-.11-.03-.24-.02-.34-.07-.23-.11-.5-.2-.66-.38-.26-.27-.28-.63-.12-.98,.17-.36,.47-.53,.86-.55,.46-.03,.93-.05,1.39-.12,.18-.03,.39-.16,.5-.31,.39-.55,.13-1.41-.48-1.7-.14-.07-.29-.11-.44-.16-.47-.15-.76-.52-.73-.93,.03-.45,.37-.76,.88-.88,.26-.06,.52-.22,.71-.4,.29-.27,.39-.65,.41-1.04,.05-.91-.58-1.51-1.22-1.5-.18,0-.37-.04-.55-.06-1.99-.25-3.98-.5-5.97-.75-.56-.07-1.1-.18-1.48-.65-.48-.59-.49-1.24-.21-1.92,.76-1.88,1.13-3.84,1.04-5.87-.05-1.05-.62-1.67-1.66-1.81-.62-.08-.77,.04-.83,.65-.03,.33-.01,.67-.07,.99-.28,1.53-1.06,2.85-1.82,4.17-.49,.84-1.27,1.39-2.1,1.86-1.39,.78-2.37,1.93-3.08,3.34-.08,.17-.22,.32-.36,.45-.5,.47-1.1,.79-1.78,.89-.72,.11-1.45,.14-2.18,.18-.67,.04-1.02,.38-1.04,1.04,0,.14,0,.27,0,.41,0,1.52,0,3.04,0,4.56Z"/>
  </g>
</svg>