<?xml version="1.0" encoding="UTF-8"?>
<svg id="Layer_2" data-name="Layer 2" xmlns="http://www.w3.org/2000/svg" viewBox="0 0 25.5 30.59">
  <g id="Layer_1-2" data-name="Layer 1">
    <g>
      <path d="M13.32,0c.3,.06,.6,.1,.9,.18,3.01,.8,4.94,2.71,5.56,5.74,.54,2.65-.2,5-2.23,6.85-2.28,2.08-4.94,2.54-7.76,1.42-2.6-1.04-4.19-3.06-4.53-5.89-.41-3.35,1.26-6.3,4.34-7.69,.61-.27,1.29-.37,1.94-.55,.07-.02,.15-.04,.22-.06,.52,0,1.04,0,1.55,0Zm4.81,7.36c0-3.1-2.49-5.58-5.58-5.57-3.08,.01-5.55,2.48-5.57,5.56-.02,3.12,2.61,5.61,5.57,5.58,3.1-.03,5.57-2.47,5.57-5.57Z"/>
      <path d="M12.76,30.59c-2.56,0-5.12,.01-7.68,0-1.13,0-2.18-.33-3.1-1.01-1.13-.83-1.79-1.95-1.92-3.34-.22-2.52,.07-4.99,1-7.35,.57-1.44,1.43-2.68,2.85-3.44,.87-.46,1.81-.68,2.78-.66,.31,0,.63,.17,.91,.32,.44,.24,.86,.54,1.29,.81,1.32,.84,2.75,1.29,4.33,1.17,1.16-.09,2.23-.47,3.22-1.08,.34-.21,.69-.4,1-.65,.81-.65,1.7-.67,2.66-.45,1.8,.4,3.04,1.48,3.9,3.06,.74,1.36,1.13,2.82,1.3,4.34,.12,1.1,.19,2.22,.18,3.33,0,2.42-1.63,4.35-4,4.81-.47,.09-.97,.13-1.45,.13-2.43,.01-4.86,0-7.29,0h0Zm0-1.79c.3,0,.6,0,.9,0,2.21,0,4.42,.03,6.63-.01,2.23-.04,3.47-1.36,3.43-3.58-.02-.88-.07-1.77-.18-2.65-.16-1.3-.46-2.56-1.1-3.72-.58-1.06-1.38-1.86-2.6-2.15-.54-.13-1.03-.14-1.48,.24-.25,.21-.54,.37-.82,.54-2.76,1.7-5.63,1.94-8.57,.52-.74-.36-1.41-.85-2.12-1.27-.11-.06-.24-.13-.35-.12-1.04,.04-1.94,.4-2.64,1.19-.67,.75-1.09,1.63-1.38,2.58-.51,1.63-.64,3.31-.65,5.01,0,1.11,.34,2.1,1.29,2.78,.72,.51,1.55,.65,2.41,.65,2.42,0,4.84,0,7.26,0Z"/>
    </g>
  </g>
</svg>