<?xml version="1.0" encoding="UTF-8"?>
<svg id="Layer_2" data-name="Layer 2" xmlns="http://www.w3.org/2000/svg" viewBox="0 0 40.91 24.89">
  <g id="Layer_1-2" data-name="Layer 1">
    <g>
      <path d="M40.91,23.26c-.13,.24-.23,.5-.38,.72-.43,.6-1.03,.9-1.77,.9-2.9,0-5.8,.02-8.7,0-1.33-.01-2.17-.9-2.16-2.24,0-1.16-.06-2.33,.1-3.46,.45-3.13,3.19-5.77,6.61-5.67,3.26,.1,5.77,2.74,6.23,5.67,.01,.09,.05,.17,.08,.26v3.84Zm-10.69-.82h8.23c0-.98,.09-1.95-.02-2.89-.22-1.99-1.91-3.53-3.89-3.64-1.81-.11-3.71,1.3-4.09,3.2-.21,1.07-.16,2.19-.24,3.33Z"/>
      <path d="M34.4,0c3.35,0,6.08,2.72,6.09,6.05,0,3.31-2.76,6.07-6.09,6.07-3.33,0-6.09-2.75-6.08-6.07C28.32,2.72,31.05,0,34.4,0Zm3.65,6.05c0-1.98-1.56-3.65-3.66-3.64-2.14,0-3.65,1.7-3.64,3.66,0,2,1.63,3.61,3.64,3.62,2.02,.01,3.66-1.62,3.66-3.64Z"/>
      <path d="M19.14,24.88c-1.21,0-2.42-.03-3.63,0-1.47,.05-2.34-1.05-2.25-2.25,.07-.99-.02-2,.1-2.99,.32-2.52,2.46-4.66,4.94-5.01,2.5-.36,4.98,.99,6.05,3.35,.3,.65,.51,1.38,.58,2.09,.09,1.03,.08,2.07,0,3.11-.07,.94-.86,1.64-1.8,1.66-1.33,.03-2.66,0-3.99,0,0,0,0,.01,0,.02Zm3.43-2.42c-.07-1.08,.16-2.14-.25-3.15-.52-1.29-1.47-2.1-2.85-2.26-1.42-.17-2.5,.48-3.27,1.65-.77,1.17-.52,2.47-.54,3.76h6.9Z"/>
      <path d="M13.64,7.83c.01-3.04,2.47-5.47,5.51-5.45,3.02,.02,5.46,2.47,5.45,5.47,0,2.99-2.47,5.45-5.48,5.46-3.01,.01-5.5-2.47-5.48-5.48Zm5.48,3.05c1.68,0,3.04-1.35,3.06-3.03,.02-1.66-1.39-3.07-3.07-3.07-1.67,0-3.05,1.37-3.06,3.04,0,1.69,1.37,3.06,3.07,3.06Z"/>
      <path d="M5.13,24.87c-1.02,0-2.05,0-3.07,0C.72,24.86-.02,24.12,0,22.79c.02-.99-.02-2.01,.18-2.97,.49-2.35,2.63-4.02,4.96-4.01,2.36,0,4.51,1.69,4.97,4.06,.21,1.08,.19,2.22,.14,3.33-.04,.99-.81,1.61-1.81,1.67-.04,0-.08,0-.12,0-1.06,0-2.13,0-3.19,0Zm2.7-2.43c0-.61,.02-1.18,0-1.75-.05-1.01-.85-2-1.85-2.33-1.02-.35-2.11-.04-2.83,.76-.88,.97-.77,2.14-.74,3.32H7.83Z"/>
      <path d="M5.14,5.01c2.66,0,4.84,2.18,4.83,4.82-.01,2.65-2.19,4.8-4.86,4.79-2.66,0-4.8-2.18-4.79-4.84,.01-2.63,2.18-4.78,4.82-4.77Zm2.39,4.86c.04-1.3-1-2.4-2.28-2.44-1.38-.04-2.51,1.02-2.53,2.37-.02,1.28,1.06,2.38,2.38,2.42,1.29,.04,2.4-1.03,2.43-2.35Z"/>
    </g>
  </g>
</svg>