<?xml version="1.0" encoding="UTF-8"?>
<svg id="Layer_2" data-name="Layer 2" xmlns="http://www.w3.org/2000/svg" viewBox="0 0 26.82 29.94">
  <g id="Layer_1-2" data-name="Layer 1">
    <path d="M20.87,0c.38,.19,.78,.34,1.13,.56,.99,.64,1.3,1.57,1.08,2.86-.01,.08-.04,.17-.06,.28,1.15,.2,2.04,.76,2.51,1.85,.47,1.07,.36,2.1-.3,3.1,.82,.47,1.26,1.18,1.36,2.12,.1,.93-.11,1.74-.77,2.44,.06,.07,.12,.14,.18,.22,1.16,1.37,1.07,3.41-.23,4.66-.56,.54-1.26,.73-2.01,.81-1.66,.19-3.32,.41-4.97,.62-.51,.06-1.02,.13-1.53,.19,.22,.69,.45,1.34,.64,2.01,.38,1.36,.55,2.75,.55,4.15,0,1.1-.19,2.14-.99,2.97-.85,.89-1.94,1.18-3.11,1.08-1-.09-1.74-.9-1.9-1.94-.03-.21-.06-.43-.05-.64,.02-.55-.11-1.07-.33-1.56-.33-.72-.69-1.44-1.05-2.15-.31-.61-.81-1.03-1.36-1.41-.71-.48-1.43-.95-2.08-1.49-.79-.65-1.35-1.51-1.82-2.41-.21-.39-.5-.63-.89-.72-.46-.11-.94-.15-1.41-.2-.46-.05-.94-.02-1.39-.12C.93,17.03,.05,16.13,.03,14.71,0,11.3-.01,7.89,.02,4.48c.02-1.61,1.07-2.36,2.53-2.43,.74-.03,1.48,.02,2.22-.03,.44-.03,.9-.09,1.3-.26,1.43-.61,2.88-1.16,4.43-1.38,.92-.13,1.85-.22,2.78-.33,.15-.02,.31-.04,.46-.06,2.37,0,4.75,0,7.12,0ZM1.77,9.58s0,0,0,0c0,.22,0,.45,0,.67,0,1.44,0,2.89,0,4.33,0,.67,.37,1.02,1.04,1.04,.3,0,.6,0,.9,.01,.72,.03,1.43,.13,2.09,.44,.61,.29,1.14,.67,1.46,1.32,.39,.79,.88,1.53,1.56,2.09,.58,.47,1.21,.87,1.84,1.29,.7,.46,1.33,1,1.74,1.74,.44,.8,.84,1.62,1.23,2.45,.35,.73,.54,1.5,.53,2.31,0,.2,.02,.42,.1,.6,.06,.13,.24,.31,.37,.31,1.29-.03,1.91-.52,2.02-1.74,.12-1.34-.04-2.67-.38-3.96-.21-.81-.52-1.59-.76-2.39-.27-.9,.29-1.87,1.21-2.07,.53-.11,1.07-.17,1.61-.23,1.78-.23,3.57-.45,5.35-.68,.27-.04,.57-.09,.79-.24,.55-.38,.65-.96,.53-1.59-.13-.64-.53-1.03-1.13-1.14-.4-.07-.68-.29-.79-.69-.13-.5,.15-.93,.73-1.11,.86-.28,1.1-.61,1.03-1.44-.04-.41-.22-.66-.63-.73-.47-.07-.94-.09-1.42-.12-.49-.03-.88-.39-.92-.86-.05-.48,.25-.9,.73-1.02,.09-.02,.19-.03,.29-.05,.64-.11,1.1-.54,1.15-1.1,.09-.97-.6-1.64-1.58-1.55-.4,.04-.8,.08-1.19,.07-.53,0-.97-.47-.97-1,0-.5,.26-.84,.68-1.02,.53-.23,.58-1.2,.06-1.49-.33-.19-.66-.33-1.04-.33-2.53,0-5.06-.04-7.58,.22-1.8,.19-3.55,.52-5.2,1.31-.87,.42-1.77,.61-2.74,.58-.59-.02-1.19-.02-1.78,0-.77,.03-.92,.18-.93,.95,0,1.61,0,3.22,0,4.82Z"/>
  </g>
</svg>