<?xml version="1.0" encoding="UTF-8"?>
<svg id="Layer_2" data-name="Layer 2" xmlns="http://www.w3.org/2000/svg" viewBox="0 0 23.89 35.87">
  <g id="Layer_1-2" data-name="Layer 1">
    <path d="M22.47,0c.3,.18,.62,.32,.88,.53,.43,.35,.53,.84,.52,1.38-.02,1.51-.07,3.01,.01,4.52,.08,1.46-.98,2.17-2.18,2.18-1.25,0-2.5,0-3.75,.01-.23,0-.46,.05-.69,.09-.28,.05-.39,.27-.39,.51-.01,.94,0,1.89,0,2.88,.14,0,.27,0,.41,0,1.53,.01,3.06,0,4.59,.04,1,.04,1.79,.83,1.79,1.93,0,1.66-.03,3.32,0,4.97,.03,1.37-.99,2.11-2.11,2.11-1.44,0-2.87,0-4.31,0-.13,0-.25,0-.41,0v.49c0,4.04,.01,8.08,0,12.11,0,1.31-.73,2.08-2.07,2.1-2.24,.03-4.49,.01-6.73,0-.96,0-1.64-.45-2.01-1.32-.09-.21-.07-.48-.07-.73,0-4.05,0-8.1,0-12.15v-.51c-.14,0-.26,0-.38,0-1.11,0-2.22,0-3.33,0-.85,0-1.55-.28-2.03-.99-.1-.16-.16-.37-.16-.56-.02-.86-.03-1.73-.03-2.59,0-1.02,.03-2.03,0-3.05-.04-1.05,.9-1.81,1.76-1.84,1.24-.04,2.48-.03,3.71-.04,.14,0,.28,0,.45,0,0-.15,.02-.28,.02-.4,.01-.93,0-1.87,.04-2.8,.08-1.66,.5-3.24,1.42-4.65,.68-1.03,1.55-1.88,2.6-2.55C11.47,.76,13.09,.26,14.81,.05c.03,0,.06-.03,.09-.05,2.52,0,5.05,0,7.57,0ZM2.49,19.03c.17,0,.29,0,.42,0,1.34,0,2.69,0,4.03,0,.98,0,1.5,.49,1.5,1.49-.03,4.26-.01,8.52-.01,12.78v.43h5.84c0-.18,0-.33,0-.48,0-4.26,0-8.52,0-12.78,0-.15,.02-.3,.06-.44,.22-.78,.8-1.01,1.55-1,1.61,.01,3.23,0,4.84,0,.15,0,.3-.02,.45-.03v-4.79c-.15,0-.29,0-.43,0-1.66,0-3.32,0-4.98,0-.85,0-1.5-.52-1.49-1.24,.02-1.32-.12-2.65,.12-3.97,.13-.74,.42-1.35,1.04-1.8,.67-.48,1.44-.64,2.24-.67,1.1-.04,2.2-.03,3.29-.05,.13,0,.27-.01,.4-.02V2.04c-.15,0-.27,0-.4,0-1.31,0-2.62-.04-3.93,0-.95,.03-1.92,.09-2.85,.27-2.03,.39-3.69,1.4-4.8,3.19-.61,.98-.87,2.1-.94,3.23-.09,1.38-.03,2.78-.03,4.17,0,.53-.19,.94-.69,1.15-.25,.1-.54,.15-.81,.16-1.36,.02-2.71,0-4.07,0-.12,0-.25,0-.37,0v4.82Z"/>
  </g>
</svg>