<?xml version="1.0" encoding="UTF-8"?>
<svg id="Layer_2" data-name="Layer 2" xmlns="http://www.w3.org/2000/svg" viewBox="0 0 369 324">
  <defs>
    <style>
      .cls-1 {
        fill: #231f20;
      }
    </style>
  </defs>
  <g id="biohazard">
    <path class="cls-1" d="M169.8,132.09c1.96,.38,3.91,.67,5.86,.87v20.34c-6.27,2.38-11.19,7.47-13.34,13.84-43.49-11.15-71.27-54.43-62.61-99.08,6.4-32.97,30.93-57.8,61.25-66.16-22.16,7.54-39.78,26.42-44.57,51.06-7.1,36.6,16.81,72.02,53.41,79.13Z"/>
    <path class="cls-1" d="M267.58,100.64c-6.5,33.47-31.68,58.55-62.63,66.52-2.99-8.9-11.41-15.31-21.32-15.31-.33,0-.65,.01-.97,.02v-18.53c31.7,.03,60-22.38,66.26-54.66,6.97-35.9-15.9-70.66-51.32-78.68,.78,.12,1.56,.27,2.34,.42,46.35,8.99,76.64,53.87,67.64,100.22Z"/>
    <path class="cls-1" d="M224.16,103.09c-2.76,3.91-6.03,7.44-9.7,10.48-10.07-6.07-21.87-9.57-34.46-9.57s-24.39,3.5-34.46,9.57c-3.67-3.04-6.94-6.57-9.7-10.48,12.7-8.28,27.87-13.09,44.16-13.09s31.46,4.81,44.16,13.09Z"/>
    <path class="cls-1" d="M246.43,196.38c-1.19,1.6-2.29,3.24-3.32,4.91l-18.34-8.79c.56-6.68-1.9-13.32-6.72-18.01,28.84-34.4,79.88-40.76,116.41-13.66,26.97,20.02,38.77,52.87,33.21,83.82,2.77-23.24-6.64-47.29-26.79-62.26-29.94-22.22-72.21-15.95-94.44,13.98Z"/>
    <path class="cls-1" d="M232.55,298.15c-27.38-20.32-39.12-53.87-32.93-85.22,9.32,1.15,18.74-3.68,23.02-12.61,.14-.3,.27-.59,.4-.88l16.71,8.01c-13.72,28.58-5.74,63.78,20.67,83.37,29.37,21.8,70.59,16.19,93.13-12.29-.45,.65-.92,1.29-1.39,1.93-28.13,37.92-81.69,45.85-119.61,17.7Z"/>
    <path class="cls-1" d="M249.09,257.94c-2.33-4.18-4.1-8.65-5.26-13.28,9.82-6.46,18.08-15.59,23.52-26.94s7.38-23.51,6.26-35.21c4.33-2,8.92-3.42,13.64-4.22,1.98,15.03-.24,30.79-7.27,45.48-7.04,14.69-17.93,26.29-30.88,34.17Z"/>
    <path class="cls-1" d="M133.79,226.59c-.65-1.89-1.37-3.72-2.18-5.51l17.61-10.17c5.2,4.24,12.06,5.96,18.66,4.63,12.09,43.24-11.5,88.94-54.5,103.76-31.75,10.94-65.52,2.11-87.92-19.96,17.61,15.42,42.77,21.24,66.5,13.07,35.25-12.15,53.97-50.57,41.82-85.82Z"/>
    <path class="cls-1" d="M57.66,157.64c32.24-11.11,66.55-1.84,88.92,20.98-6.21,7.04-7.55,17.54-2.6,26.12,.16,.29,.33,.56,.5,.83l-16.05,9.27c-15.82-27.47-49.38-40.77-80.47-30.05C13.4,196.69-5.27,233.88,5.5,268.56c-.29-.74-.55-1.49-.81-2.24-15.39-44.64,8.33-93.31,52.97-108.69Z"/>
    <path class="cls-1" d="M81.5,194.02c4.77,.44,9.46,1.5,13.93,3.16-.22,11.76,2.65,23.72,8.94,34.63s15.23,19.37,25.52,25.06c-.8,4.7-2.22,9.3-4.23,13.64-13.52-6.86-25.27-17.59-33.42-31.7-8.14-14.11-11.56-29.65-10.74-44.79Z"/>
  </g>
</svg>