<?xml version="1.0" encoding="UTF-8"?>
<svg id="Layer_2" data-name="Layer 2" xmlns="http://www.w3.org/2000/svg" viewBox="0 0 254.31 254.31">
  <defs>
    <style>
      .cls-1 {
        fill: #231f20;
      }
    </style>
  </defs>
  <g id="planet">
    <path class="cls-1" d="M127.16,37.16c24.04,0,46.64,9.36,63.64,26.36,35.09,35.09,35.09,92.19,0,127.28-17,17-39.6,26.36-63.64,26.36s-46.64-9.36-63.64-26.36c-35.09-35.09-35.09-92.19,0-127.28,17-17,39.6-26.36,63.64-26.36m0-18c-27.64,0-55.28,10.54-76.37,31.63-42.18,42.18-42.18,110.56,0,152.74,21.09,21.09,48.73,31.63,76.37,31.63s55.28-10.54,76.37-31.63c42.18-42.18,42.18-110.56,0-152.74-21.09-21.09-48.73-31.63-76.37-31.63h0Z"/>
    <path class="cls-1" d="M230.23,0c-16.04,0-38.85,9.13-65.09,26.03,7.24,2.72,14.25,6.24,20.9,10.57,10.75-5.36,19.94-8.26,26.8-8.26,4.19,0,7.51,1.09,9.79,3.36,14.06,14.06-17.28,68.19-70,120.92-44.19,44.19-89.38,73.36-111.12,73.36-4.2,0-7.52-1.09-9.79-3.36-5.99-5.99-3.73-19.26,4.9-36.58-4.33-6.64-7.85-13.65-10.57-20.9C1.15,203.76-6.88,234.95,6.24,248.07c4.21,4.21,10.28,6.24,17.85,6.24,30.37,0,84.98-32.7,141.25-88.97C235.63,95.05,269.16,27.33,248.07,6.24c-4.21-4.21-10.27-6.24-17.84-6.24h0Z"/>
  </g>
</svg>