<?xml version="1.0" encoding="UTF-8"?>
<svg id="Layer_2" data-name="Layer 2" xmlns="http://www.w3.org/2000/svg" viewBox="0 0 179.14 168.21">
  <defs>
    <style>
      .cls-1 {
        fill: #231f20;
      }
    </style>
  </defs>
  <g id="recycle">
    <path id="all-arrows" class="cls-1" d="M106.08,62.62l-14.7-25.46-24.03,41.61-31.18-18L63.58,13.3c2.6-4.5,7.02-7.66,12.13-8.66L97.64,.34c7.55-1.48,15.2,2,19.05,8.66l20.57,35.62,7.79-4.5-14.38,29.09-32.38-2.09,7.79-4.5Zm69.44,48.27l-24.76-42.89-31.18,18,21.48,37.21h-28.39v-9l-18,27,18,27v-9h36.14c10.83,0,20.61-6.47,24.85-16.43l3.33-7.82c3.32-7.81,2.78-16.72-1.46-24.07Zm-121.67-8.74l7.79,4.5-14.38-29.09-32.38,2.09,7.79,4.5L2.41,119.25c-4,6.92-2.95,15.65,2.57,21.43l12.37,12.97c3.4,3.56,8.1,5.57,13.02,5.57h55.3v-36H41.69l12.16-21.06Z"/>
  </g>
</svg>