<?xml version="1.0" encoding="UTF-8"?>
<svg id="Layer_2" data-name="Layer 2" xmlns="http://www.w3.org/2000/svg" viewBox="0 0 324 306">
  <defs>
    <style>
      .cls-1 {
        fill: #231f20;
      }

      .cls-2 {
        fill: #fff;
        stroke: #231f20;
        stroke-miterlimit: 10;
        stroke-width: 6px;
      }
    </style>
  </defs>
  <g id="ying-yang">
    <g>
      <path class="cls-1" d="M162,294.33c-38.23,0-69.33-31.1-69.33-69.33s31.1-69.33,69.33-69.33c41.17,0,74.67-33.5,74.67-74.67,0-27.16-14.58-50.98-36.32-64.05,59.36,16.75,102.99,71.4,102.99,136.05,0,77.93-63.4,141.33-141.33,141.33Z"/>
      <path class="cls-1" d="M215.09,24.82c16.61,6.88,31.87,17.03,44.97,30.13,26.19,26.19,40.61,61.01,40.61,98.05s-14.42,71.86-40.61,98.05c-26.19,26.19-61.01,40.61-98.05,40.61s-66.67-29.91-66.67-66.67,29.91-66.67,66.67-66.67c42.64,0,77.33-34.69,77.33-77.33,0-22.11-9.32-42.08-24.25-56.18m-53.09-15.82c39.76,0,72,32.24,72,72s-32.24,72-72,72-72,32.24-72,72,32.24,72,72,72c79.53,0,144-64.47,144-144S241.53,9,162,9h0Z"/>
    </g>
    <circle class="cls-2" cx="153" cy="234" r="27"/>
    <circle class="cls-1" cx="144" cy="72" r="27"/>
    <path class="cls-1" d="M162,19c38.4,0,74.45,14.07,101.51,39.63,26.76,25.27,41.49,58.79,41.49,94.37s-14.74,69.1-41.49,94.37c-27.06,25.55-63.11,39.63-101.51,39.63s-74.45-14.07-101.51-39.63c-26.76-25.27-41.49-58.79-41.49-94.37s14.74-69.1,41.49-94.37c27.06-25.55,63.1-39.63,101.51-39.63m0-19C72.53,0,0,68.5,0,153s72.53,153,162,153,162-68.5,162-153S251.47,0,162,0h0Z"/>
  </g>
</svg>